<svg version="1" xmlns="http://www.w3.org/2000/svg" width="1365.333" height="1365.333" viewBox="0 0 1024.000000 1024.000000"><path d="M704.5 27.1c-25.8 8-23.8 34.7 3 40.8 15.5 3.4 32.9-4.4 35.9-16.3.9-3.4 1-6.1.4-8.7-3.4-13-22.9-20.9-39.3-15.8zM281.7 69c-11.3 3.6-19.4 10.8-22.1 19.5-1.5 4.6-1.5 6.5 0 13.7.8 4 8.9 12.5 14.5 15.4 14.3 7.2 31 6.8 44.6-1.2 11.4-6.6 16.3-18 12.6-29-1.7-5-8.7-12.5-14.3-15.4-10-5.1-24.8-6.4-35.3-3zM684.8 69.6c-.2.1-2.5.5-5.1.8-10 1.4-22.6 9.7-26.2 17.3-8.9 18.7 9.3 37.4 36.5 37.4 16.2-.1 29.5-6.4 36.4-17.4 2.3-3.8 3.2-12.5 1.7-17-2.8-8.5-15.4-18-26.6-20.2-3.8-.8-16.2-1.5-16.7-.9zM634 123.2c-36.8 3.7-64.5 27.2-63.4 53.7 1.5 37.3 54.1 61.4 103.4 47.4 13.5-3.8 27.3-12.5 35.6-22.5 16.4-19.5 12.1-45.5-10.1-62.5-16.2-12.4-41.3-18.6-65.5-16.1zM317 137.6c-8.2 1.8-17.4 6.2-23.1 11.3-10 8.8-13.6 22.5-8.7 33.3 5.1 11 14 18.1 28 22.2 15.3 4.5 34.5 2.2 46.3-5.6 8.1-5.3 13.4-11.7 15.7-18.8 5.8-17.7-7.8-36.1-30.9-42-6.6-1.7-20.2-1.8-27.3-.4zM368.7 214.6c-.1.1-2.7.4-5.7.8-3 .3-6.6.8-8 1-1.4.3-5.6 1-9.5 1.6-3.8.6-7.4 1.5-7.8 1.9-.4.4.1 2.9 1.2 5.5 9.6 22.2 7.2 41.5-7 57-11.4 12.5-32.6 22.9-53.3 26.2-2.1.3-4.8.8-6 1.1-4.1.9-32.2 1.1-39.4.3-21.6-2.6-35.9-6.7-55.1-15.7l-9.4-4.4-2.5 2.3c-4 3.5-15.2 15.2-15.2 15.8 0 .3 1.3 1.1 2.9 1.7 4.7 1.7 16.5 10 23.5 16.5 7.8 7.1 14.7 16 19.1 24.9 11.7 23 8.9 47.8-7.2 65.1-8.9 9.4-23.1 16.6-38.3 19.3-10.4 1.9-31.2 1.3-41.3-1.3l-7.8-1.9.6 5.1c.5 4.3 4.2 20.7 4.8 21.2.1.1 4.9.4 10.7.7 28.9 1.4 61.2 14.4 81.5 32.8 5.9 5.4 13.2 15.1 16.4 21.9 8.3 17.4 5.7 34.7-7.1 48.1-5.6 5.8-11.4 10.2-18.6 13.8L186 578l3.2 2.8c3.9 3.4 18.2 14.2 22 16.6 1.9 1.3 3.2 1.5 4.5.8 1-.6 3.2-1.2 4.8-1.5 1.7-.3 4.1-.8 5.5-1.1 22.8-5.4 55.8-3.3 82 5.4 31.5 10.4 52.8 28.2 58.6 49 1.2 4.3.6 14.5-1 18.5-.9 2.1-1.5 3.9-1.4 4 .2.2 5.3 1.6 11.3 3.3 14.1 3.8 15.4 4.2 18.7 4.8 1.5.3 4.7 1.1 7 1.8 4.3 1.2 4.3 1.2 9.9-3.1 14-10.6 35.1-18.8 56.4-21.9 11.7-1.7 36.8-1.1 48 1 1.7.4 4.6.9 6.5 1.2 5.8 1 19 5.4 26.6 8.9 14.4 6.6 26.3 16 32.5 25.6l3.1 5 11.2-.6c16.1-.8 18.9-1.3 18-3.3-1.6-3.5-1.5-12.2.1-17.9 6.6-23 30-40.8 63-47.8 10.9-2.4 33.6-2.9 44.2-1 16.4 3 32.6 9.5 44.3 17.9l4.7 3.4 11-6.2c17.5-9.7 16.7-8.3 8.5-13.9-18.8-12.8-29.3-30.8-27.8-47.4 1.5-15.8 11.7-30 29.4-40.6 10.8-6.5 29.5-12.9 41.7-14.3 2.8-.3 6.1-.8 7.5-1 4.8-.8 24.5-.4 29.9.6 2.9.5 5.7 1 6.2 1 1.1 0 3.9-13.3 4.5-21.3l.6-6.7-3.4-.1c-7.1-.2-12.6-.9-22.5-2.9-39-7.9-67.3-27.9-76.5-54-2.3-6.4-3.1-19.6-1.7-26 4-18.3 19.2-35 43.1-47.4l8.5-4.4-9.7-9.9c-5.3-5.4-11.1-11.1-12.8-12.7l-3-2.8-8.4 2.6c-19.4 6-32.6 8.1-50.5 7.9-20.1-.2-39.5-3.9-57.3-11-46-18.5-67.1-54.9-51.6-88.9l2.3-5-4.6-1.3c-2.5-.7-5.5-1.6-6.6-2.1-2.4-1-18.5-6.1-27.7-8.8l-6.7-2-2.5 4.2c-5.3 9.1-16.9 18.9-30.2 25.5-8.5 4.3-23.4 9.5-30 10.5-2.1.4-4.6.8-5.4 1.1-10.7 3.1-38.7 3.7-57 1.1-44.2-6.1-80.7-28-91.6-54.8-1.5-3.9-2.3-4.7-4.2-4.5-1.3.1-2.4.2-2.5.3zm119.8 95.8c3.9.4 8.1.9 9.5 1.1 1.4.3 5 .7 8 1.1 9.8 1.1 32.1 5.4 47 9 71.4 17.6 134 54.7 166.5 98.6 14.1 19.1 23.4 39.9 26 58.3 1.7 12 .9 29.3-1.8 40-4.7 18.1-14.8 35.3-30 50.7-9.6 9.8-13.9 13.4-26.2 21.5-25.5 16.8-62.9 30.8-97.5 36.3-4.1.7-8.2 1.4-9 1.5-1.3.2-7.5 1-16.5 2.1-17.7 2.1-60.3 2-76.8-.1-1.5-.2-5.5-.6-9-1-3.4-.3-7.3-.8-8.7-1-1.4-.3-4.1-.7-6-1-1.9-.3-4.6-.7-6-1-1.4-.3-4.1-.7-6-1-26.9-4.1-68.7-17.3-96.7-30.5-5.7-2.7-10.7-5-11.1-5.1-.4 0-1.9-1-3.4-2-1.4-1-2.9-1.9-3.2-1.9-.4 0-3.6-1.8-7.2-4s-6.9-4-7.2-4c-.3 0-2-1.1-3.8-2.5-1.8-1.4-3.5-2.5-3.9-2.5-1.2 0-23.3-16.9-30-23-27.2-24.6-45-52-51.4-79.4-4.1-17-3.3-36.4 2.1-53.6 16.6-52.6 81.3-93.9 163.8-104.5 3-.4 6.3-.9 7.4-1.1 1-.2 5.3-.6 9.5-1 4.2-.3 7.7-.7 7.9-.9.6-.6 56.5.2 63.7.9zM48.8 229.7c-17.9 8.3-16.2 28 2.9 34.9 9.5 3.4 23 .5 29.5-6.3 4.2-4.4 5.6-8.3 5.2-13.7-1.2-13.8-22.1-22.1-37.6-14.9zM121.8 257.5c-.2.2-2.2.5-4.5.9C104.1 260.2 93 271 93 282c0 23.7 40 33.4 57.7 14 11.6-12.8 3.8-31.8-15.2-36.9-3.9-1-13.1-2.1-13.7-1.6zM951.6 278.7c-13.4 3.1-22.6 12.9-22.6 23.9 0 9.1 6 17.3 16.2 22 5.6 2.5 7.4 2.9 16.3 2.9 9 0 10.7-.3 16.3-2.9 19.4-9 21.7-29.5 4.7-41.3-7.5-5.2-20.3-7.1-30.9-4.6zM868 299.1c-15.9 2.2-31.4 12.2-36.7 23.5-10.8 23.5 14.6 46.9 49.7 45.9 25.8-.7 46.1-14.5 47.7-32.4 2.2-23.7-27.3-41.6-60.7-37zM48.8 429C37.1 432.6 30 439.7 30 447.6c0 5.7 1.2 8.6 5.2 12.5 8.6 8.3 24.8 11.2 38.8 7 8.9-2.7 16.4-9.3 17.5-15.4 2.4-12.9-10.7-23.7-29.4-24.2-5.1-.2-9.6.3-13.3 1.5zM910.4 503c-19.3 5.2-24.6 22.3-10.2 32.7 16.7 12.1 45.7 4.9 48.5-12 2.3-14.7-18.6-26.1-38.3-20.7zM980 508c-11 3-17.2 12.8-14.1 22.2 1.4 4.3 7.5 10.2 12 11.7 15.5 5.1 32.3-7.2 28.3-20.7-2.9-9.7-15.7-16.1-26.2-13.2zM144.8 586.7c-5.4 1.8-12.2 7.2-14.3 11.3-8.9 17.2 13.1 34.7 35.1 27.9 22.5-7 23.1-31.5.9-39.2-5.6-1.9-16.1-2-21.7 0zM815.8 646.1c-1.5.4-2.9.5-3.1.3-.8-.8-12.1 4.6-14.5 6.9-14.6 13.6.6 33.3 24.2 31.4 21-1.8 31.5-19 18.8-31-5.9-5.5-18.7-9.4-25.4-7.6zM361.5 695.7c-12.7 2.6-20.6 12.5-17.5 21.9 4.1 12.2 23.5 17.6 37.4 10.3 18.2-9.5 10.1-31.5-11.9-32.4-3.3-.1-6.9 0-8 .2zM601.7 717.1c-7.3 1.7-13.4 5.7-16.6 10.9-2.6 4.3-2.7 8-.2 12.8 6.4 12.5 31.8 16.3 45.8 6.9 14-9.5 10.3-23.9-7.7-29.9-5-1.7-15.4-2-21.3-.7z"/></svg>