<?xml version="1.0" encoding="UTF-8"?>
<!DOCTYPE svg PUBLIC "-//W3C//DTD SVG 1.1//EN"
  "http://www.w3.org/Graphics/SVG/1.1/DTD/svg11.dtd">
<!-- Created with Inkpad (http://www.taptrix.com/) --><svg xmlns="http://www.w3.org/2000/svg" xmlns:xlink="http://www.w3.org/1999/xlink" viewBox="0,0,2048,1024" xmlns:inkpad="http://taptrix.com/inkpad/svg_extensions" width="2048pt" height="1024pt" version="1.1">
<defs/>
<defs>
  <style>
  @import url('https://fonts.googleapis.com/css?family=Nunito:300,400');
  </style>
</defs>
<g id="Layer" inkpad:layerName="Ebene 1">
<g opacity="1">
<path d="M1603.76+630.156C1603.76+622.105+1613.71+615.579+1625.98+615.579C1638.25+615.579+1648.2+622.105+1648.2+630.156C1648.2+638.207+1638.25+644.733+1625.98+644.733C1613.71+644.733+1603.76+638.207+1603.76+630.156Z" fill="#bdc700" opacity="1"/>
<path d="M1415.15+613.418C1415.15+605.545+1423.69+599.162+1434.22+599.162C1444.75+599.162+1453.29+605.545+1453.29+613.418C1453.29+621.292+1444.75+627.674+1434.22+627.674C1423.69+627.674+1415.15+621.292+1415.15+613.418Z" fill="#bdc700" opacity="1"/>
<path d="M1246.03+529.178C1246.03+519.921+1255.69+512.417+1267.61+512.417C1279.53+512.417+1289.19+519.921+1289.19+529.178C1289.19+538.434+1279.53+545.938+1267.61+545.938C1255.69+545.938+1246.03+538.434+1246.03+529.178Z" fill="#bdc700" opacity="1"/>
</g>
<g opacity="1">
<path d="M1168.38+404.88C1168.38+395.733+1179.39+388.319+1192.96+388.319C1206.53+388.319+1217.53+395.733+1217.53+404.88C1217.53+414.026+1206.53+421.44+1192.96+421.44C1179.39+421.44+1168.38+414.026+1168.38+404.88Z" fill="#00a0df" opacity="1"/>
<path d="M1173.47+246.128C1173.47+237.604+1182.39+230.695+1193.38+230.695C1204.38+230.695+1213.29+237.604+1213.29+246.128C1213.29+254.651+1204.38+261.56+1193.38+261.56C1182.39+261.56+1173.47+254.651+1173.47+246.128Z" fill="#00a0df" opacity="1"/>
<path d="M1218.13+274.132C1218.13+263.478+1229.32+254.842+1243.13+254.842C1256.94+254.842+1268.13+263.478+1268.13+274.132C1268.13+284.786+1256.94+293.423+1243.13+293.423C1229.32+293.423+1218.13+284.786+1218.13+274.132Z" fill="#00a0df" opacity="1"/>
<path d="M1348.32+126.839C1348.32+114.687+1361.43+104.836+1377.6+104.836C1393.77+104.836+1406.87+114.687+1406.87+126.839C1406.87+138.992+1393.77+148.843+1377.6+148.843C1361.43+148.843+1348.32+138.992+1348.32+126.839Z" fill="#00a0df" opacity="1"/>
<path d="M1367.59+187.213C1367.59+171.847+1384.12+159.39+1404.51+159.39C1424.9+159.39+1441.43+171.847+1441.43+187.213C1441.43+202.579+1424.9+215.036+1404.51+215.036C1384.12+215.036+1367.59+202.579+1367.59+187.213Z" fill="#00a0df" opacity="1"/>
<path d="M1593.89+190.278C1593.89+167.256+1620.18+148.594+1652.62+148.594C1685.05+148.594+1711.35+167.256+1711.35+190.278C1711.35+213.299+1685.05+231.962+1652.62+231.962C1620.18+231.962+1593.89+213.299+1593.89+190.278Z" fill="#00a0df" opacity="1"/>
<path d="M1657.25+128.771C1657.25+116.595+1671.02+106.724+1688+106.724C1704.99+106.724+1718.76+116.595+1718.76+128.771C1718.76+140.946+1704.99+150.817+1688+150.817C1671.02+150.817+1657.25+140.946+1657.25+128.771Z" fill="#00a0df" opacity="1"/>
<path d="M1684.84+89.2355C1684.84+79.8222+1695.12+72.1912+1707.81+72.1912C1720.5+72.1912+1730.78+79.8222+1730.78+89.2355C1730.78+98.6488+1720.5+106.28+1707.81+106.28C1695.12+106.28+1684.84+98.6488+1684.84+89.2355Z" fill="#00a0df" opacity="1"/>
<path d="M1797.09+314.649C1797.09+299.308+1814.78+286.871+1836.61+286.871C1858.44+286.871+1876.14+299.308+1876.14+314.649C1876.14+329.991+1858.44+342.428+1836.61+342.428C1814.78+342.428+1797.09+329.991+1797.09+314.649Z" fill="#00a0df" opacity="1"/>
<path d="M1875.82+290.363C1875.82+279.317+1887.33+270.362+1901.53+270.362C1915.74+270.362+1927.25+279.317+1927.25+290.363C1927.25+301.409+1915.74+310.363+1901.53+310.363C1887.33+310.363+1875.82+301.409+1875.82+290.363Z" fill="#00a0df" opacity="1"/>
<path d="M1846.74+462.663C1846.74+453.862+1856.82+446.727+1869.25+446.727C1881.69+446.727+1891.77+453.862+1891.77+462.663C1891.77+471.465+1881.69+478.6+1869.25+478.6C1856.82+478.6+1846.74+471.465+1846.74+462.663Z" fill="#00a0df" opacity="1"/>
<path d="M1904.25+465.434C1904.25+457.653+1911.64+451.345+1920.76+451.345C1929.88+451.345+1937.27+457.653+1937.27+465.434C1937.27+473.216+1929.88+479.523+1920.76+479.523C1911.64+479.523+1904.25+473.216+1904.25+465.434Z" fill="#00a0df" opacity="1"/>
<path d="M1768.46+575.714C1768.46+567.188+1778.06+560.276+1789.91+560.276C1801.76+560.276+1811.36+567.188+1811.36+575.714C1811.36+584.24+1801.76+591.151+1789.91+591.151C1778.06+591.151+1768.46+584.24+1768.46+575.714Z" fill="#00a0df" opacity="1"/>
</g>
<path d="M1439.06+221.616C1429.02+222.677+1419.39+224.346+1409.81+226.059C1414.7+236.602+1417.61+247.203+1415.91+256.793C1410.58+286.969+1366.76+304.296+1317.97+295.673C1302.81+292.993+1289.72+287.589+1277.98+281.232C1272.58+285.657+1268.21+290.667+1263.54+295.488C1295.17+310.689+1312.81+341.453+1302.61+367.324C1292.43+393.137+1258.64+403.606+1225.22+393.244C1225.78+400.427+1227.67+407.439+1229.48+414.535C1235.61+414.664+1241.56+414.322+1247.99+415.461C1291.71+423.207+1323.16+451.624+1318.34+478.78C1316.08+491.584+1305.75+501.563+1291.31+508.033C1297.85+513.762+1305.26+518.961+1312.6+524.325C1325.87+520.647+1340.67+518.391+1357.22+519.882C1401.97+523.912+1436.35+547.772+1434.06+573.203C1433.77+576.463+1432.88+579.495+1431.47+582.46C1442.15+585.732+1453.2+588.384+1464.42+590.977C1478.63+578.37+1501.71+569.501+1529.22+569.5C1565.13+569.5+1594.91+583.813+1604.58+603.196C1612.49+602.712+1620.6+602.597+1628.27+601.715C1627.86+599.565+1626.42+597.649+1626.42+595.42C1626.42+568.434+1657.96+546.542+1696.96+546.543C1718.75+546.543+1737.49+553.763+1750.47+564.501C1757.66+560.592+1765.14+556.884+1771.58+552.467C1754.32+542.277+1743.06+528.057+1743.99+512.291C1745.61+484.78+1781.7+464.59+1824.53+467.116C1828.16+467.33+1831.23+468.451+1834.71+468.967C1835.71+465.034+1836.89+461.177+1837.49+457.118C1838+453.666+1838.02+450.201+1838.23+446.75C1792.37+444.991+1755.65+420.242+1755.65+389.171C1755.65+368.456+1772.74+351.194+1797.13+340.848C1791.09+333.822+1783.95+327.118+1776.76+320.482C1763.54+325.397+1749.11+328.999+1732.88+328.999C1682.13+328.999+1640.86+301.645+1640.86+267.716C1640.86+260.26+1643.14+253.225+1646.79+246.61C1635.03+242.561+1623.35+238.526+1610.87+235.316C1599.61+257.742+1563.86+272.516+1522.37+269.568C1479.9+266.55+1445.93+246.169+1439.06+221.616ZM1507.19+295.303C1520.58+295.598+1534.36+296.76+1548.29+298.821C1659.78+315.306+1741.87+383.967+1731.77+452.304C1721.67+520.643+1623.13+562.657+1511.63+546.172C1400.14+529.687+1317.87+461.027+1327.97+392.688C1336.81+332.893+1413.49+293.239+1507.19+295.303Z" fill="#bdc700" opacity="1"/>
<text x="0" font-family="'Nunito'" style="font-weight:400" y="0" text-anchor="middle" font-size="23" transform="matrix(5.92459 0 0 5.92459 113.765 606.941)" fill="#614130" opacity="1">
<tspan x="46.3684" y="23" textLength="88.228">
<![CDATA[KÖNIGS]]></tspan>
</text>
<text x="0" font-family="'Nunito'"  style="font-weight:400"  y="0" text-anchor="middle" font-size="23" transform="matrix(5.92459 0 0 5.92459 630.472 606.219)" fill="#009ede" opacity="1">
<tspan x="54.3825" y="23" textLength="104.006">
<![CDATA[DISZIPLIN]]></tspan>
</text>
<text x="0" font-family="'Nunito'" y="0" text-anchor="middle" font-size="14" transform="matrix(5.92459 0 0 5.92459 540.98 755.717)" fill="#725035" opacity="1">
<tspan x="84.3503" y="14" textLength="158.998">
<![CDATA[Seminare - Fortbildungen]]></tspan>
</text>
<text x="0" font-family="'Nunito'" y="0" text-anchor="middle" font-size="14" transform="matrix(5.92459 0 0 5.92459 505.94 854.845)" fill="#725035" inkpad:text="Einzel-&#x20;und&#x20;Teamcoaching" opacity="1">
<tspan x="87.33" y="14" textLength="162.61">
<![CDATA[Einzel- und Teamcoaching]]></tspan>
</text>
</g>
</svg>
